<svg xmlns="http://www.w3.org/2000/svg" xmlns:xlink="http://www.w3.org/1999/xlink" width="34" height="34" viewBox="0 0 34 34">
    <defs>
        <path id="prefix__a" d="M0.001 0.559L26.467 0.559 26.467 25 0.001 25z"/>
    </defs>
    <g fill="none" fill-rule="evenodd">
        <path fill="#FFF" d="M9.662 10.055L8.764 12.853 10.547 12.853 9.682 10.055z" transform="translate(4 4)"/>
        <g transform="translate(4 4) translate(0 .441)">
            <mask id="prefix__b" fill="#fff">
                <use xlink:href="#prefix__a"/>
            </mask>
            <path fill="#FFF" d="M23.272 14.93c-.153.118-.34.178-.554.178-.156 0-.282-.027-.381-.083-.098-.063-.2-.169-.3-.332l-1.755-2.826-.836.872.008 1.578c-.002.238-.071.431-.21.574-.138.145-.325.217-.557.217-.193 0-.356-.054-.49-.157-.133-.107-.218-.25-.255-.43-.012-.067-.016-.133-.014-.204l-.002-5.634c.002-.235.069-.428.208-.573.137-.144.323-.217.558-.217.192 0 .354.052.487.16.135.105.219.25.256.43.013.065.019.133.015.2l.004 2.31 2.394-2.753c.107-.118.203-.203.29-.262.088-.057.192-.085.317-.085.168 0 .32.047.456.141.137.091.22.214.254.372l.01.06c-.001.022 0 .046.004.063-.001.11-.024.207-.07.29-.047.087-.107.17-.181.255l-1.566 1.71 1.852 2.933.056.088c.126.2.199.346.219.443.002.006.005.024.012.047-.002.027-.002.041 0 .05 0 .272-.076.466-.23.585zm-5.724-.12c-.15.114-.338.174-.567.174h-3.178c-.237 0-.427-.047-.573-.147-.15-.094-.243-.25-.29-.469-.017-.092-.028-.197-.032-.312l.002-5.373c0-.235.07-.428.209-.573.136-.144.323-.217.558-.217.192 0 .356.052.489.16.13.105.217.25.254.43.013.065.019.133.013.2l-.001 4.966h2.546c.204 0 .376.044.514.135.139.093.227.221.259.387.01.044.018.096.022.146 0 .211-.075.376-.225.492zm-5.09.096c-.14.137-.308.202-.506.202-.352 0-.58-.146-.684-.435l-.394-1.16H8.42l-.396 1.16c-.095.29-.323.435-.682.435-.178 0-.33-.045-.45-.139-.121-.092-.2-.226-.233-.393-.012-.049-.014-.103-.014-.163-.004-.077.008-.17.04-.28.029-.109.065-.22.104-.328l1.97-5.428c.062-.174.155-.299.278-.372.12-.075.276-.112.466-.112h.366c.197 0 .364.04.498.12.133.08.24.234.315.461l1.839 5.331c.06.165.1.308.125.425.014.078.024.14.027.183-.003.195-.075.356-.215.493zm-6.293-.589c-.001.238-.07.431-.208.574-.136.145-.326.217-.56.217-.19 0-.353-.054-.486-.157-.135-.107-.22-.25-.257-.43-.013-.067-.016-.133-.013-.204l.003-4.963h-1.44c-.198 0-.37-.047-.512-.136-.143-.088-.23-.219-.263-.386-.008-.045-.016-.096-.022-.149 0-.209.076-.374.227-.488.148-.117.337-.178.566-.178h4.404c.198 0 .369.047.51.136.144.09.232.216.267.387.006.045.012.093.009.143 0 .217-.074.378-.22.498-.146.115-.334.173-.563.173h-1.44l-.002 4.963zM13.233.558C5.925.558 0 5.238 0 11.011c0 3.712 2.455 6.964 6.14 8.825l-1.247 4.656c-.047.14-.01.294.094.397.072.072.166.111.27.111.08 0 .159-.034.23-.089l5.363-3.62c.777.111 1.572.173 2.382.173 7.307 0 13.234-4.679 13.234-10.453C26.467 5.237 20.54.558 13.233.558z" mask="url(#prefix__b)"/>
        </g>
    </g>
</svg>
